<svg width="82" height="29" viewBox="0 0 82 29" fill="none" xmlns="http://www.w3.org/2000/svg">
<path fill-rule="evenodd" clip-rule="evenodd" d="M35.5447 4.91129C35.5447 4.91129 35.5447 4.91129 37.2549 4.91129C37.8834 4.91129 38.1904 5.21824 38.1904 5.91985C38.1904 5.91985 38.1904 5.91985 38.1904 8.3755C38.1904 8.3755 38.1904 8.3755 41.5377 8.3755C41.5377 8.3755 41.5377 8.3755 41.5377 5.91985C41.5377 5.21824 41.8446 4.91129 42.5463 4.91129C42.5463 4.91129 42.5463 4.91129 44.1833 4.91129C44.1833 4.91129 44.1833 4.91129 44.1833 6.53377C44.1833 6.53377 44.1833 6.53377 43.4817 6.53377L43.4087 6.60685C43.4087 6.60685 43.4087 6.60685 43.4087 13.5353C43.4087 13.5353 43.4087 13.5353 41.5377 13.5353C41.5377 13.5353 41.5377 13.5353 41.5377 10.0711C41.5377 10.0711 41.5377 10.0711 38.1904 10.0711C38.1904 10.0711 38.1904 10.0711 38.1904 13.5353C38.1904 13.5353 38.1904 13.5353 36.3194 13.5353C36.3194 13.5353 36.3194 13.5353 36.3194 6.60685C36.3194 6.60685 36.3194 6.53377 36.2464 6.53377C36.2464 6.53377 36.2464 6.53377 35.5447 6.53377C35.5447 6.53377 35.5447 6.53377 35.5447 4.91129Z" fill="#ED1C24"/>
<path fill-rule="evenodd" clip-rule="evenodd" d="M49.08 4.76511H49.1238V6.54837L49.08 6.53376C47.6768 6.53376 46.5951 7.68849 46.5951 9.15019C46.5951 10.685 47.6768 11.9274 49.08 11.9274L49.1238 11.9128V13.6814L49.08 13.6961C46.5951 13.6961 44.5634 11.6935 44.5634 9.15019C44.5634 6.69454 46.5951 4.76511 49.08 4.76511Z" fill="#ED1C24"/>
<path fill-rule="evenodd" clip-rule="evenodd" d="M49.1238 4.76511L49.9862 4.85281C52.0472 5.24747 53.5966 7.0015 53.5966 9.15019C53.5966 11.372 52.0472 13.1845 49.9862 13.5937L49.1238 13.6814V11.9128L50.0739 11.7082C50.9948 11.2843 51.6526 10.3049 51.6526 9.15019C51.6526 8.05392 50.9948 7.13305 50.0739 6.73839L49.1238 6.54837V4.76511Z" fill="#ED1C24"/>
<path fill-rule="evenodd" clip-rule="evenodd" d="M53.9767 4.91129C53.9767 4.91129 53.9767 4.91129 56.5931 4.91129H57.8356V6.53377H57.7186C57.5578 6.53377 57.2509 6.53377 56.6223 6.53377C56.6223 6.53377 56.6223 6.53377 56.6223 8.30241C56.6223 8.30241 56.6223 8.30241 57.1486 8.30241H57.8356V9.83719H57.4409C57.2363 9.83719 56.9732 9.83719 56.6223 9.83719C56.6223 9.83719 56.6223 9.83719 56.6223 11.7666C56.6223 11.8397 56.6223 11.8397 56.7101 11.8397C56.7101 11.8397 56.7101 11.8397 57.2655 11.8397H57.8356V13.5353H57.6748C57.3824 13.5353 56.827 13.5353 55.7015 13.5353C55.073 13.5353 54.766 13.2283 54.766 12.5413V6.53377C54.766 6.53377 54.766 6.53377 53.9767 6.53377C53.9767 6.53377 53.9767 6.53377 53.9767 4.91129Z" fill="#ED1C24"/>
<path fill-rule="evenodd" clip-rule="evenodd" d="M57.8356 4.91129H57.8648C59.5896 4.91129 60.5982 5.84677 60.5982 7.23538C60.5982 8.06854 60.2035 8.60937 59.8235 9.00403C60.5251 9.31098 60.9782 10.0711 60.9782 10.9188C60.9782 12.5413 59.7358 13.5353 57.9525 13.5353C57.9525 13.5353 57.9525 13.5353 57.9233 13.5353H57.8356V11.8397H58.0256C58.6541 11.8397 59.0342 11.4597 59.0342 10.8458C59.0342 10.2319 58.6541 9.83719 58.0256 9.83719C58.0256 9.83719 58.0256 9.83719 57.8502 9.83719H57.8356V8.30241H57.8648C58.4202 8.30241 58.7272 7.92237 58.7272 7.38155C58.7272 6.84072 58.4202 6.53377 57.8648 6.53377C57.8648 6.53377 57.8648 6.53377 57.8502 6.53377H57.8356V4.91129Z" fill="#ED1C24"/>
<path fill-rule="evenodd" clip-rule="evenodd" d="M64.5593 4.91129C64.5593 4.91129 64.5593 4.91129 65.3486 4.91129H65.4948V7.38155C65.4217 7.54233 65.334 7.76159 65.334 7.99546C65.334 7.99546 65.334 7.99546 64.7201 9.76411C64.7201 9.76411 64.7201 9.76411 65.3779 9.76411H65.4948V11.3866H65.0709C64.8371 11.3866 64.5593 11.3866 64.2524 11.3866C64.2524 11.3866 64.2524 11.3866 63.7115 12.7752C63.5508 13.3014 63.2438 13.5353 62.6153 13.5353C62.6153 13.5353 62.6153 13.5353 61.4459 13.5353C61.4459 13.5353 61.4459 13.5353 61.4459 11.8397C61.4459 11.8397 61.4459 11.8397 61.8406 11.8397C62.0014 11.8397 62.0014 11.8397 62.0745 11.7666C62.0745 11.7666 62.0745 11.7666 64.5593 4.91129Z" fill="#ED1C24"/>
<path fill-rule="evenodd" clip-rule="evenodd" d="M65.4948 4.91129H66.4303C66.4303 4.91129 66.4303 4.91129 68.9152 11.7666C68.9883 11.8397 68.9883 11.8397 69.149 11.8397C69.149 11.8397 69.149 11.8397 69.456 11.8397C69.456 11.8397 69.456 11.8397 69.456 13.5353C69.456 13.5353 69.456 13.5353 68.3743 13.5353C67.7458 13.5353 67.4389 13.3014 67.2781 12.6875C67.2781 12.6875 67.2781 12.6875 66.7373 11.3866C66.7373 11.3866 66.7373 11.3866 65.6848 11.3866H65.4948V9.76411H66.2695C66.2695 9.76411 66.2695 9.76411 65.6556 7.99546C65.6556 7.76159 65.5679 7.54233 65.4948 7.38155V4.91129Z" fill="#ED1C24"/>
<path fill-rule="evenodd" clip-rule="evenodd" d="M35.5447 15.9909C35.5447 15.9909 35.5447 15.9909 42.3124 15.9909C42.9409 15.9909 43.3209 16.3125 43.3209 16.9995C43.3209 16.9995 43.3209 16.9995 43.3209 22.8463C43.3209 22.9194 43.3209 22.9194 43.4087 22.9194C43.4087 22.9194 43.4087 22.9194 44.0226 22.9194C44.0226 22.9194 44.0226 22.9194 44.0226 24.6149C44.0226 24.6149 44.0226 24.6149 42.4001 24.6149C41.6985 24.6149 41.3769 24.308 41.3769 23.621C41.3769 23.621 41.3769 23.621 41.3769 17.7011C41.3769 17.7011 41.3769 17.6134 41.3038 17.6134C41.3038 17.6134 41.3038 17.6134 38.1904 17.6134C38.1904 17.6134 38.1904 17.6134 38.1904 24.6149C38.1904 24.6149 38.1904 24.6149 36.3194 24.6149C36.3194 24.6149 36.3194 24.6149 36.3194 17.6134C36.3194 17.6134 36.3194 17.6134 35.5447 17.6134C35.5447 17.6134 35.5447 17.6134 35.5447 15.9909Z" fill="#ED1C24"/>
<path fill-rule="evenodd" clip-rule="evenodd" d="M48.9338 15.8448H48.9631V17.628L48.9338 17.6134C47.516 17.6134 46.4343 18.7681 46.4343 20.2298C46.4343 21.7646 47.516 23.0071 48.9338 23.0071L48.9631 22.9924V24.7611L48.9338 24.7757C46.4343 24.7757 44.4903 22.7732 44.4903 20.2298C44.4903 17.7742 46.4343 15.8448 48.9338 15.8448Z" fill="#ED1C24"/>
<path fill-rule="evenodd" clip-rule="evenodd" d="M48.9631 15.8448L49.8547 15.9325C51.9449 16.3271 53.4359 18.0811 53.4359 20.2298C53.4359 22.4516 51.9449 24.2641 49.8547 24.6734L48.9631 24.7611V22.9924L49.957 22.7878C50.8779 22.3639 51.4918 21.3846 51.4918 20.2298C51.4918 19.1336 50.8779 18.2127 49.957 17.818L48.9631 17.628V15.8448Z" fill="#ED1C24"/>
<path fill-rule="evenodd" clip-rule="evenodd" d="M53.8306 15.9909C53.8306 15.9909 53.8306 15.9909 55.5407 15.9909C56.1693 15.9909 56.4762 16.3125 56.4762 16.9995C56.4762 16.9995 56.4762 16.9995 56.4762 22.8463C56.4762 22.9194 56.4762 22.9194 56.5493 22.9194C56.5493 22.9194 56.5493 22.9194 58.8003 22.9194C58.8003 22.9194 58.8003 22.9194 58.8003 15.9909C58.8003 15.9909 58.8003 15.9909 60.6713 15.9909C60.6713 15.9909 60.6713 15.9909 60.6713 22.9194C60.6713 22.9194 60.6713 22.9194 62.9369 22.9194C63.01 22.9194 63.01 22.9194 63.01 22.8463C63.01 22.8463 63.01 22.8463 63.01 16.9995C63.01 16.3125 63.317 15.9909 63.9455 15.9909C63.9455 15.9909 63.9455 15.9909 65.6557 15.9909C65.6557 15.9909 65.6557 15.9909 65.6557 17.6134C65.6557 17.6134 65.6557 17.6134 64.9541 17.6134C64.8664 17.6134 64.8664 17.7011 64.8664 17.7011C64.8664 17.7011 64.8664 17.7011 64.8664 23.621C64.8664 24.308 64.5594 24.6149 63.9455 24.6149C63.9455 24.6149 63.9455 24.6149 55.6138 24.6149C54.9122 24.6149 54.6053 24.308 54.6053 23.621C54.6053 23.621 54.6053 23.621 54.6053 17.7011C54.6053 17.7011 54.6053 17.6134 54.5322 17.6134C54.5322 17.6134 54.5322 17.6134 53.8306 17.6134C53.8306 17.6134 53.8306 17.6134 53.8306 15.9909Z" fill="#ED1C24"/>
<path fill-rule="evenodd" clip-rule="evenodd" d="M67.132 15.9909C67.132 15.9909 67.132 15.9909 72.9641 15.9909C73.6658 15.9909 73.8996 16.3125 73.8996 16.9264C73.8996 16.9264 73.8996 16.9264 73.8996 18.3881H72.1895C72.1895 18.3881 72.1895 18.3881 72.1895 17.7011C72.1895 17.6134 72.1895 17.6134 72.1017 17.6134C72.1017 17.6134 72.1017 17.6134 71.0201 17.6134C71.0201 17.6134 71.0201 17.6134 71.0201 24.6149C71.0201 24.6149 71.0201 24.6149 69.1491 24.6149C69.1491 24.6149 69.1491 24.6149 69.1491 17.6134C69.1491 17.6134 69.1491 17.6134 68.0675 17.6134C67.9798 17.6134 67.9798 17.6134 67.9798 17.7011C67.9798 17.7011 67.9798 17.7011 67.9798 18.3881C67.9798 18.3881 67.9798 18.3881 66.2696 18.3881C66.2696 18.3881 66.2696 18.3881 66.2696 16.9264C66.2696 16.3125 66.5035 15.9909 67.132 15.9909Z" fill="#ED1C24"/>
<path fill-rule="evenodd" clip-rule="evenodd" d="M76.3114 15.9909C76.3114 15.9909 76.3114 15.9909 77.1007 15.9909H77.2469V18.4612C77.1592 18.622 77.0861 18.8412 77.0861 19.0751C77.0861 19.0751 77.0861 19.0751 76.4576 20.8438C76.4576 20.8438 76.4576 20.8438 77.1153 20.8438H77.2469V22.4662H76.823C76.5745 22.4662 76.3114 22.4662 75.9898 22.4662C75.9898 22.4662 75.9898 22.4662 75.449 23.7671C75.3028 24.3811 74.9813 24.6149 74.3674 24.6149C74.3674 24.6149 74.3674 24.6149 73.198 24.6149C73.198 24.6149 73.198 24.6149 73.198 22.9194C73.198 22.9194 73.198 22.9194 73.5927 22.9194C73.7388 22.9194 73.7388 22.9194 73.8265 22.8463C73.8265 22.8463 73.8265 22.8463 76.3114 16.0056V15.9909Z" fill="#ED1C24"/>
<path fill-rule="evenodd" clip-rule="evenodd" d="M77.2468 15.9909H78.1677C78.1677 15.9909 78.1677 15.9909 80.6672 22.8463C80.7403 22.9194 80.7403 22.9194 80.9011 22.9194H81.208C81.208 22.9194 81.208 22.9194 81.208 24.6149C81.208 24.6149 81.208 24.6149 80.1264 24.6149C79.4978 24.6149 79.1909 24.3811 79.0301 23.7671C79.0301 23.7671 79.0301 23.7671 78.4893 22.4662C78.4893 22.4662 78.4893 22.4662 77.4368 22.4662H77.2468V20.8438H78.0215C78.0215 20.8438 78.0215 20.8438 77.393 19.0751C77.393 18.8412 77.3199 18.622 77.2468 18.4612V15.9909Z" fill="#ED1C24"/>
<path fill-rule="evenodd" clip-rule="evenodd" d="M23.5589 8.58015C23.6466 8.55091 23.7635 8.60938 23.8805 8.77017C23.8805 8.77017 23.8805 8.77017 29.1718 13.9153C29.4787 14.2223 29.4787 14.69 29.1718 14.9239C29.1718 14.9239 29.1718 14.9239 23.8805 20.1568C23.7635 20.3029 23.6466 20.3468 23.5589 20.3029C23.4712 20.2591 23.4127 20.1129 23.4127 19.9229V8.91634C23.4127 8.72632 23.4712 8.60938 23.5589 8.58015Z" fill="#ED1C24"/>
<path fill-rule="evenodd" clip-rule="evenodd" d="M14.511 0H14.8911L15.2419 0.146169C15.2419 0.146169 15.2419 0.146169 20.694 5.53982C20.9279 5.84677 20.8402 6.06603 20.4601 6.06603C20.4601 6.06603 20.4601 6.06603 18.1945 6.06603C17.8145 6.06603 17.4929 6.3876 17.4929 6.76764C17.4929 6.76764 17.4929 6.76764 17.4929 10.7727C17.4929 11.1527 17.1859 11.4597 16.7182 11.4597C16.7182 11.4597 16.7182 11.4597 12.757 11.4597C12.3623 11.4597 12.0554 11.1527 12.0554 10.7727C12.0554 10.7727 12.0554 10.7727 12.0554 6.76764C12.0554 6.3876 11.7484 6.06603 11.3538 6.06603H8.94197C8.54731 6.06603 8.47423 5.84677 8.7081 5.53982C8.7081 5.53982 8.7081 5.53982 14.1602 0.146169L14.511 0Z" fill="#ED1C24"/>
<path fill-rule="evenodd" clip-rule="evenodd" d="M5.98929 8.4632C6.07699 8.52167 6.13546 8.65322 6.13546 8.84324V20.069C6.13546 20.2737 6.07699 20.3906 5.98929 20.4199C5.88697 20.4637 5.75542 20.4199 5.59463 20.3029C5.59463 20.3029 5.59463 20.3029 0.230217 14.9239C-0.0767389 14.69 -0.0767389 14.2223 0.230217 13.9153C0.230217 13.9153 0.230217 13.9153 5.59463 8.60937C5.75542 8.4632 5.88697 8.41935 5.98929 8.4632Z" fill="#ED1C24"/>
<path fill-rule="evenodd" clip-rule="evenodd" d="M12.7569 17.3064C12.7569 17.3064 12.7569 17.3064 16.7181 17.3064C17.1859 17.3064 17.5074 17.6134 17.5074 18.0081C17.5074 18.0081 17.5074 18.0081 17.5074 22.2323C17.5074 22.7001 17.8144 23.007 18.1944 23.007H20.2993C20.6939 23.007 20.8401 23.2263 20.5331 23.4602C20.5331 23.4602 20.5331 23.4602 15.2418 28.7661C15.081 28.9269 14.891 29 14.701 29C14.511 29 14.3063 28.9269 14.1602 28.7661C14.1602 28.7661 14.1602 28.7661 8.86882 23.4602C8.54725 23.2263 8.70804 23.007 9.08808 23.007C9.08808 23.007 9.08808 23.007 11.3537 23.007C11.7484 23.007 12.0553 22.7001 12.0553 22.2323C12.0553 22.2323 12.0553 22.2323 12.0553 18.0081C12.0553 17.6134 12.3623 17.3064 12.7569 17.3064Z" fill="#ED1C24"/>
</svg>
